<mxfile host="app.diagrams.net" modified="2023-06-14T02:55:57.451Z" agent="Mozilla/5.0 (Windows NT 10.0; Win64; x64) AppleWebKit/537.36 (KHTML, like Gecko) Chrome/105.0.0.0 Safari/537.36" etag="ztwcJfX14gN8yiljeSA1" version="21.3.8" type="github">
  <diagram name="Page-1" id="fc2ac565-0d4e-3f0d-88b0-a54af1634ed7">
    <mxGraphModel dx="1674" dy="884" grid="1" gridSize="10" guides="1" tooltips="1" connect="0" arrows="1" fold="1" page="1" pageScale="1.5" pageWidth="1169" pageHeight="827" background="none" math="0" shadow="0">
      <root>
        <mxCell id="0" style=";html=1;" />
        <mxCell id="1" style=";html=1;" parent="0" />
        <object label="" id="FSC97US5naSDxNQZ-GgM-100">
          <mxCell style="shape=table;startSize=0;container=1;collapsible=0;childLayout=tableLayout;fontSize=16;" vertex="1" parent="1">
            <mxGeometry x="80" y="150" width="1110" height="840" as="geometry" />
          </mxCell>
        </object>
        <mxCell id="FSC97US5naSDxNQZ-GgM-101" value="" style="shape=tableRow;horizontal=0;startSize=0;swimlaneHead=0;swimlaneBody=0;strokeColor=inherit;top=0;left=0;bottom=0;right=0;collapsible=0;dropTarget=0;fillColor=none;points=[[0,0.5],[1,0.5]];portConstraint=eastwest;fontSize=16;" vertex="1" parent="FSC97US5naSDxNQZ-GgM-100">
          <mxGeometry width="1110" height="95" as="geometry" />
        </mxCell>
        <mxCell id="FSC97US5naSDxNQZ-GgM-102" value="事项" style="shape=partialRectangle;html=1;whiteSpace=wrap;connectable=0;strokeColor=inherit;overflow=hidden;fillColor=none;top=0;left=0;bottom=0;right=0;pointerEvents=1;fontSize=16;" vertex="1" parent="FSC97US5naSDxNQZ-GgM-101">
          <mxGeometry width="116" height="95" as="geometry">
            <mxRectangle width="116" height="95" as="alternateBounds" />
          </mxGeometry>
        </mxCell>
        <mxCell id="FSC97US5naSDxNQZ-GgM-104" value="6.21" style="shape=partialRectangle;html=1;whiteSpace=wrap;connectable=0;strokeColor=inherit;overflow=hidden;fillColor=none;top=0;left=0;bottom=0;right=0;pointerEvents=1;fontSize=16;" vertex="1" parent="FSC97US5naSDxNQZ-GgM-101">
          <mxGeometry x="116" width="124" height="95" as="geometry">
            <mxRectangle width="124" height="95" as="alternateBounds" />
          </mxGeometry>
        </mxCell>
        <mxCell id="FSC97US5naSDxNQZ-GgM-121" value="6.25（节后第一天）" style="shape=partialRectangle;html=1;whiteSpace=wrap;connectable=0;strokeColor=inherit;overflow=hidden;fillColor=none;top=0;left=0;bottom=0;right=0;pointerEvents=1;fontSize=16;" vertex="1" parent="FSC97US5naSDxNQZ-GgM-101">
          <mxGeometry x="240" width="152" height="95" as="geometry">
            <mxRectangle width="152" height="95" as="alternateBounds" />
          </mxGeometry>
        </mxCell>
        <mxCell id="FSC97US5naSDxNQZ-GgM-142" value="6.28" style="shape=partialRectangle;html=1;whiteSpace=wrap;connectable=0;strokeColor=inherit;overflow=hidden;fillColor=none;top=0;left=0;bottom=0;right=0;pointerEvents=1;fontSize=16;" vertex="1" parent="FSC97US5naSDxNQZ-GgM-101">
          <mxGeometry x="392" width="109" height="95" as="geometry">
            <mxRectangle width="109" height="95" as="alternateBounds" />
          </mxGeometry>
        </mxCell>
        <mxCell id="FSC97US5naSDxNQZ-GgM-116" value="未定" style="shape=partialRectangle;html=1;whiteSpace=wrap;connectable=0;strokeColor=inherit;overflow=hidden;fillColor=none;top=0;left=0;bottom=0;right=0;pointerEvents=1;fontSize=16;" vertex="1" parent="FSC97US5naSDxNQZ-GgM-101">
          <mxGeometry x="501" width="138" height="95" as="geometry">
            <mxRectangle width="138" height="95" as="alternateBounds" />
          </mxGeometry>
        </mxCell>
        <mxCell id="FSC97US5naSDxNQZ-GgM-113" value="7.07" style="shape=partialRectangle;html=1;whiteSpace=wrap;connectable=0;strokeColor=inherit;overflow=hidden;fillColor=none;top=0;left=0;bottom=0;right=0;pointerEvents=1;fontSize=16;" vertex="1" parent="FSC97US5naSDxNQZ-GgM-101">
          <mxGeometry x="639" width="131" height="95" as="geometry">
            <mxRectangle width="131" height="95" as="alternateBounds" />
          </mxGeometry>
        </mxCell>
        <mxCell id="FSC97US5naSDxNQZ-GgM-131" value="7.10（周一）" style="shape=partialRectangle;html=1;whiteSpace=wrap;connectable=0;strokeColor=inherit;overflow=hidden;fillColor=none;top=0;left=0;bottom=0;right=0;pointerEvents=1;fontSize=16;" vertex="1" parent="FSC97US5naSDxNQZ-GgM-101">
          <mxGeometry x="770" width="170" height="95" as="geometry">
            <mxRectangle width="170" height="95" as="alternateBounds" />
          </mxGeometry>
        </mxCell>
        <mxCell id="FSC97US5naSDxNQZ-GgM-155" value="7.26（周三）&lt;br&gt;最终完成时间" style="shape=partialRectangle;html=1;whiteSpace=wrap;connectable=0;strokeColor=inherit;overflow=hidden;fillColor=none;top=0;left=0;bottom=0;right=0;pointerEvents=1;fontSize=16;" vertex="1" parent="FSC97US5naSDxNQZ-GgM-101">
          <mxGeometry x="940" width="170" height="95" as="geometry">
            <mxRectangle width="170" height="95" as="alternateBounds" />
          </mxGeometry>
        </mxCell>
        <mxCell id="FSC97US5naSDxNQZ-GgM-105" value="" style="shape=tableRow;horizontal=0;startSize=0;swimlaneHead=0;swimlaneBody=0;strokeColor=inherit;top=0;left=0;bottom=0;right=0;collapsible=0;dropTarget=0;fillColor=none;points=[[0,0.5],[1,0.5]];portConstraint=eastwest;fontSize=16;" vertex="1" parent="FSC97US5naSDxNQZ-GgM-100">
          <mxGeometry y="95" width="1110" height="125" as="geometry" />
        </mxCell>
        <mxCell id="FSC97US5naSDxNQZ-GgM-106" value="日志关键字指标迁移" style="shape=partialRectangle;html=1;whiteSpace=wrap;connectable=0;strokeColor=inherit;overflow=hidden;fillColor=none;top=0;left=0;bottom=0;right=0;pointerEvents=1;fontSize=16;" vertex="1" parent="FSC97US5naSDxNQZ-GgM-105">
          <mxGeometry width="116" height="125" as="geometry">
            <mxRectangle width="116" height="125" as="alternateBounds" />
          </mxGeometry>
        </mxCell>
        <mxCell id="FSC97US5naSDxNQZ-GgM-108" value="1.0新增的关键字抓取在2.0创建任务，收住口子&lt;br&gt;@燕涛" style="shape=partialRectangle;html=1;whiteSpace=wrap;connectable=0;strokeColor=inherit;overflow=hidden;fillColor=none;top=0;left=0;bottom=0;right=0;pointerEvents=1;fontSize=16;" vertex="1" parent="FSC97US5naSDxNQZ-GgM-105">
          <mxGeometry x="116" width="124" height="125" as="geometry">
            <mxRectangle width="124" height="125" as="alternateBounds" />
          </mxGeometry>
        </mxCell>
        <mxCell id="FSC97US5naSDxNQZ-GgM-122" style="shape=partialRectangle;html=1;whiteSpace=wrap;connectable=0;strokeColor=inherit;overflow=hidden;fillColor=none;top=0;left=0;bottom=0;right=0;pointerEvents=1;fontSize=16;" vertex="1" parent="FSC97US5naSDxNQZ-GgM-105">
          <mxGeometry x="240" width="152" height="125" as="geometry">
            <mxRectangle width="152" height="125" as="alternateBounds" />
          </mxGeometry>
        </mxCell>
        <mxCell id="FSC97US5naSDxNQZ-GgM-143" style="shape=partialRectangle;html=1;whiteSpace=wrap;connectable=0;strokeColor=inherit;overflow=hidden;fillColor=none;top=0;left=0;bottom=0;right=0;pointerEvents=1;fontSize=16;" vertex="1" parent="FSC97US5naSDxNQZ-GgM-105">
          <mxGeometry x="392" width="109" height="125" as="geometry">
            <mxRectangle width="109" height="125" as="alternateBounds" />
          </mxGeometry>
        </mxCell>
        <mxCell id="FSC97US5naSDxNQZ-GgM-117" value="三个环境的存量配置刷新一遍&lt;br style=&quot;border-color: var(--border-color);&quot;&gt;生产环境告警策略迁移及验证&lt;br style=&quot;border-color: var(--border-color);&quot;&gt;@杨科" style="shape=partialRectangle;html=1;whiteSpace=wrap;connectable=0;strokeColor=inherit;overflow=hidden;fillColor=none;top=0;left=0;bottom=0;right=0;pointerEvents=1;fontSize=16;" vertex="1" parent="FSC97US5naSDxNQZ-GgM-105">
          <mxGeometry x="501" width="138" height="125" as="geometry">
            <mxRectangle width="138" height="125" as="alternateBounds" />
          </mxGeometry>
        </mxCell>
        <mxCell id="FSC97US5naSDxNQZ-GgM-114" value="&lt;b&gt;完成&lt;/b&gt;" style="shape=partialRectangle;html=1;whiteSpace=wrap;connectable=0;strokeColor=inherit;overflow=hidden;fillColor=none;top=0;left=0;bottom=0;right=0;pointerEvents=1;fontSize=16;" vertex="1" parent="FSC97US5naSDxNQZ-GgM-105">
          <mxGeometry x="639" width="131" height="125" as="geometry">
            <mxRectangle width="131" height="125" as="alternateBounds" />
          </mxGeometry>
        </mxCell>
        <mxCell id="FSC97US5naSDxNQZ-GgM-132" style="shape=partialRectangle;html=1;whiteSpace=wrap;connectable=0;strokeColor=inherit;overflow=hidden;fillColor=none;top=0;left=0;bottom=0;right=0;pointerEvents=1;fontSize=16;" vertex="1" parent="FSC97US5naSDxNQZ-GgM-105">
          <mxGeometry x="770" width="170" height="125" as="geometry">
            <mxRectangle width="170" height="125" as="alternateBounds" />
          </mxGeometry>
        </mxCell>
        <mxCell id="FSC97US5naSDxNQZ-GgM-156" style="shape=partialRectangle;html=1;whiteSpace=wrap;connectable=0;strokeColor=inherit;overflow=hidden;fillColor=none;top=0;left=0;bottom=0;right=0;pointerEvents=1;fontSize=16;" vertex="1" parent="FSC97US5naSDxNQZ-GgM-105">
          <mxGeometry x="940" width="170" height="125" as="geometry">
            <mxRectangle width="170" height="125" as="alternateBounds" />
          </mxGeometry>
        </mxCell>
        <mxCell id="FSC97US5naSDxNQZ-GgM-109" value="" style="shape=tableRow;horizontal=0;startSize=0;swimlaneHead=0;swimlaneBody=0;strokeColor=inherit;top=0;left=0;bottom=0;right=0;collapsible=0;dropTarget=0;fillColor=none;points=[[0,0.5],[1,0.5]];portConstraint=eastwest;fontSize=16;" vertex="1" parent="FSC97US5naSDxNQZ-GgM-100">
          <mxGeometry y="220" width="1110" height="212" as="geometry" />
        </mxCell>
        <mxCell id="FSC97US5naSDxNQZ-GgM-110" value="kafka配置迁移" style="shape=partialRectangle;html=1;whiteSpace=wrap;connectable=0;strokeColor=inherit;overflow=hidden;fillColor=none;top=0;left=0;bottom=0;right=0;pointerEvents=1;fontSize=16;" vertex="1" parent="FSC97US5naSDxNQZ-GgM-109">
          <mxGeometry width="116" height="212" as="geometry">
            <mxRectangle width="116" height="212" as="alternateBounds" />
          </mxGeometry>
        </mxCell>
        <mxCell id="FSC97US5naSDxNQZ-GgM-112" value="" style="shape=partialRectangle;html=1;whiteSpace=wrap;connectable=0;strokeColor=inherit;overflow=hidden;fillColor=none;top=0;left=0;bottom=0;right=0;pointerEvents=1;fontSize=16;" vertex="1" parent="FSC97US5naSDxNQZ-GgM-109">
          <mxGeometry x="116" width="124" height="212" as="geometry">
            <mxRectangle width="124" height="212" as="alternateBounds" />
          </mxGeometry>
        </mxCell>
        <mxCell id="FSC97US5naSDxNQZ-GgM-123" value="test环境因app名字过长无法迁移的相关psa处理&lt;br&gt;prod小布相关psa开始迁移&lt;br&gt;@娜娜&lt;br&gt;&lt;br&gt;prod api-gateway-server 相关处理&amp;nbsp; &lt;br&gt;@元庆" style="shape=partialRectangle;html=1;whiteSpace=wrap;connectable=0;strokeColor=inherit;overflow=hidden;fillColor=none;top=0;left=0;bottom=0;right=0;pointerEvents=1;fontSize=16;" vertex="1" parent="FSC97US5naSDxNQZ-GgM-109">
          <mxGeometry x="240" width="152" height="212" as="geometry">
            <mxRectangle width="152" height="212" as="alternateBounds" />
          </mxGeometry>
        </mxCell>
        <mxCell id="FSC97US5naSDxNQZ-GgM-144" style="shape=partialRectangle;html=1;whiteSpace=wrap;connectable=0;strokeColor=inherit;overflow=hidden;fillColor=none;top=0;left=0;bottom=0;right=0;pointerEvents=1;fontSize=16;" vertex="1" parent="FSC97US5naSDxNQZ-GgM-109">
          <mxGeometry x="392" width="109" height="212" as="geometry">
            <mxRectangle width="109" height="212" as="alternateBounds" />
          </mxGeometry>
        </mxCell>
        <mxCell id="FSC97US5naSDxNQZ-GgM-118" style="shape=partialRectangle;html=1;whiteSpace=wrap;connectable=0;strokeColor=inherit;overflow=hidden;fillColor=none;top=0;left=0;bottom=0;right=0;pointerEvents=1;fontSize=16;" vertex="1" parent="FSC97US5naSDxNQZ-GgM-109">
          <mxGeometry x="501" width="138" height="212" as="geometry">
            <mxRectangle width="138" height="212" as="alternateBounds" />
          </mxGeometry>
        </mxCell>
        <mxCell id="FSC97US5naSDxNQZ-GgM-115" style="shape=partialRectangle;html=1;whiteSpace=wrap;connectable=0;strokeColor=inherit;overflow=hidden;fillColor=none;top=0;left=0;bottom=0;right=0;pointerEvents=1;fontSize=16;" vertex="1" parent="FSC97US5naSDxNQZ-GgM-109">
          <mxGeometry x="639" width="131" height="212" as="geometry">
            <mxRectangle width="131" height="212" as="alternateBounds" />
          </mxGeometry>
        </mxCell>
        <mxCell id="FSC97US5naSDxNQZ-GgM-133" style="shape=partialRectangle;html=1;whiteSpace=wrap;connectable=0;strokeColor=inherit;overflow=hidden;fillColor=none;top=0;left=0;bottom=0;right=0;pointerEvents=1;fontSize=16;" vertex="1" parent="FSC97US5naSDxNQZ-GgM-109">
          <mxGeometry x="770" width="170" height="212" as="geometry">
            <mxRectangle width="170" height="212" as="alternateBounds" />
          </mxGeometry>
        </mxCell>
        <mxCell id="FSC97US5naSDxNQZ-GgM-157" style="shape=partialRectangle;html=1;whiteSpace=wrap;connectable=0;strokeColor=inherit;overflow=hidden;fillColor=none;top=0;left=0;bottom=0;right=0;pointerEvents=1;fontSize=16;" vertex="1" parent="FSC97US5naSDxNQZ-GgM-109">
          <mxGeometry x="940" width="170" height="212" as="geometry">
            <mxRectangle width="170" height="212" as="alternateBounds" />
          </mxGeometry>
        </mxCell>
        <mxCell id="FSC97US5naSDxNQZ-GgM-124" style="shape=tableRow;horizontal=0;startSize=0;swimlaneHead=0;swimlaneBody=0;strokeColor=inherit;top=0;left=0;bottom=0;right=0;collapsible=0;dropTarget=0;fillColor=none;points=[[0,0.5],[1,0.5]];portConstraint=eastwest;fontSize=16;" vertex="1" parent="FSC97US5naSDxNQZ-GgM-100">
          <mxGeometry y="432" width="1110" height="95" as="geometry" />
        </mxCell>
        <mxCell id="FSC97US5naSDxNQZ-GgM-125" value="counter、logtail、logdevice、&lt;br&gt;logmgr" style="shape=partialRectangle;html=1;whiteSpace=wrap;connectable=0;strokeColor=inherit;overflow=hidden;fillColor=none;top=0;left=0;bottom=0;right=0;pointerEvents=1;fontSize=16;" vertex="1" parent="FSC97US5naSDxNQZ-GgM-124">
          <mxGeometry width="116" height="95" as="geometry">
            <mxRectangle width="116" height="95" as="alternateBounds" />
          </mxGeometry>
        </mxCell>
        <mxCell id="FSC97US5naSDxNQZ-GgM-127" style="shape=partialRectangle;html=1;whiteSpace=wrap;connectable=0;strokeColor=inherit;overflow=hidden;fillColor=none;top=0;left=0;bottom=0;right=0;pointerEvents=1;fontSize=16;" vertex="1" parent="FSC97US5naSDxNQZ-GgM-124">
          <mxGeometry x="116" width="124" height="95" as="geometry">
            <mxRectangle width="124" height="95" as="alternateBounds" />
          </mxGeometry>
        </mxCell>
        <mxCell id="FSC97US5naSDxNQZ-GgM-128" style="shape=partialRectangle;html=1;whiteSpace=wrap;connectable=0;strokeColor=inherit;overflow=hidden;fillColor=none;top=0;left=0;bottom=0;right=0;pointerEvents=1;fontSize=16;" vertex="1" parent="FSC97US5naSDxNQZ-GgM-124">
          <mxGeometry x="240" width="152" height="95" as="geometry">
            <mxRectangle width="152" height="95" as="alternateBounds" />
          </mxGeometry>
        </mxCell>
        <mxCell id="FSC97US5naSDxNQZ-GgM-145" style="shape=partialRectangle;html=1;whiteSpace=wrap;connectable=0;strokeColor=inherit;overflow=hidden;fillColor=none;top=0;left=0;bottom=0;right=0;pointerEvents=1;fontSize=16;" vertex="1" parent="FSC97US5naSDxNQZ-GgM-124">
          <mxGeometry x="392" width="109" height="95" as="geometry">
            <mxRectangle width="109" height="95" as="alternateBounds" />
          </mxGeometry>
        </mxCell>
        <mxCell id="FSC97US5naSDxNQZ-GgM-129" style="shape=partialRectangle;html=1;whiteSpace=wrap;connectable=0;strokeColor=inherit;overflow=hidden;fillColor=none;top=0;left=0;bottom=0;right=0;pointerEvents=1;fontSize=16;" vertex="1" parent="FSC97US5naSDxNQZ-GgM-124">
          <mxGeometry x="501" width="138" height="95" as="geometry">
            <mxRectangle width="138" height="95" as="alternateBounds" />
          </mxGeometry>
        </mxCell>
        <mxCell id="FSC97US5naSDxNQZ-GgM-130" style="shape=partialRectangle;html=1;whiteSpace=wrap;connectable=0;strokeColor=inherit;overflow=hidden;fillColor=none;top=0;left=0;bottom=0;right=0;pointerEvents=1;fontSize=16;" vertex="1" parent="FSC97US5naSDxNQZ-GgM-124">
          <mxGeometry x="639" width="131" height="95" as="geometry">
            <mxRectangle width="131" height="95" as="alternateBounds" />
          </mxGeometry>
        </mxCell>
        <mxCell id="FSC97US5naSDxNQZ-GgM-134" value="开始下线&lt;br&gt;具体环境及时间安排、执行人见文档" style="shape=partialRectangle;html=1;whiteSpace=wrap;connectable=0;strokeColor=inherit;overflow=hidden;fillColor=none;top=0;left=0;bottom=0;right=0;pointerEvents=1;fontSize=16;" vertex="1" parent="FSC97US5naSDxNQZ-GgM-124">
          <mxGeometry x="770" width="170" height="95" as="geometry">
            <mxRectangle width="170" height="95" as="alternateBounds" />
          </mxGeometry>
        </mxCell>
        <mxCell id="FSC97US5naSDxNQZ-GgM-158" value="&lt;b&gt;完成&lt;/b&gt;" style="shape=partialRectangle;html=1;whiteSpace=wrap;connectable=0;strokeColor=inherit;overflow=hidden;fillColor=none;top=0;left=0;bottom=0;right=0;pointerEvents=1;fontSize=16;" vertex="1" parent="FSC97US5naSDxNQZ-GgM-124">
          <mxGeometry x="940" width="170" height="95" as="geometry">
            <mxRectangle width="170" height="95" as="alternateBounds" />
          </mxGeometry>
        </mxCell>
        <mxCell id="FSC97US5naSDxNQZ-GgM-135" style="shape=tableRow;horizontal=0;startSize=0;swimlaneHead=0;swimlaneBody=0;strokeColor=inherit;top=0;left=0;bottom=0;right=0;collapsible=0;dropTarget=0;fillColor=none;points=[[0,0.5],[1,0.5]];portConstraint=eastwest;fontSize=16;" vertex="1" parent="FSC97US5naSDxNQZ-GgM-100">
          <mxGeometry y="527" width="1110" height="123" as="geometry" />
        </mxCell>
        <mxCell id="FSC97US5naSDxNQZ-GgM-136" value="presto" style="shape=partialRectangle;html=1;whiteSpace=wrap;connectable=0;strokeColor=inherit;overflow=hidden;fillColor=none;top=0;left=0;bottom=0;right=0;pointerEvents=1;fontSize=16;" vertex="1" parent="FSC97US5naSDxNQZ-GgM-135">
          <mxGeometry width="116" height="123" as="geometry">
            <mxRectangle width="116" height="123" as="alternateBounds" />
          </mxGeometry>
        </mxCell>
        <mxCell id="FSC97US5naSDxNQZ-GgM-137" style="shape=partialRectangle;html=1;whiteSpace=wrap;connectable=0;strokeColor=inherit;overflow=hidden;fillColor=none;top=0;left=0;bottom=0;right=0;pointerEvents=1;fontSize=16;" vertex="1" parent="FSC97US5naSDxNQZ-GgM-135">
          <mxGeometry x="116" width="124" height="123" as="geometry">
            <mxRectangle width="124" height="123" as="alternateBounds" />
          </mxGeometry>
        </mxCell>
        <mxCell id="FSC97US5naSDxNQZ-GgM-138" style="shape=partialRectangle;html=1;whiteSpace=wrap;connectable=0;strokeColor=inherit;overflow=hidden;fillColor=none;top=0;left=0;bottom=0;right=0;pointerEvents=1;fontSize=16;" vertex="1" parent="FSC97US5naSDxNQZ-GgM-135">
          <mxGeometry x="240" width="152" height="123" as="geometry">
            <mxRectangle width="152" height="123" as="alternateBounds" />
          </mxGeometry>
        </mxCell>
        <mxCell id="FSC97US5naSDxNQZ-GgM-146" value="&lt;b&gt;东京及北美弗吉尼亚机房相关下线，整体完成&lt;br&gt;@元庆&lt;/b&gt;" style="shape=partialRectangle;html=1;whiteSpace=wrap;connectable=0;strokeColor=inherit;overflow=hidden;fillColor=none;top=0;left=0;bottom=0;right=0;pointerEvents=1;fontSize=16;" vertex="1" parent="FSC97US5naSDxNQZ-GgM-135">
          <mxGeometry x="392" width="109" height="123" as="geometry">
            <mxRectangle width="109" height="123" as="alternateBounds" />
          </mxGeometry>
        </mxCell>
        <mxCell id="FSC97US5naSDxNQZ-GgM-139" style="shape=partialRectangle;html=1;whiteSpace=wrap;connectable=0;strokeColor=inherit;overflow=hidden;fillColor=none;top=0;left=0;bottom=0;right=0;pointerEvents=1;fontSize=16;" vertex="1" parent="FSC97US5naSDxNQZ-GgM-135">
          <mxGeometry x="501" width="138" height="123" as="geometry">
            <mxRectangle width="138" height="123" as="alternateBounds" />
          </mxGeometry>
        </mxCell>
        <mxCell id="FSC97US5naSDxNQZ-GgM-140" style="shape=partialRectangle;html=1;whiteSpace=wrap;connectable=0;strokeColor=inherit;overflow=hidden;fillColor=none;top=0;left=0;bottom=0;right=0;pointerEvents=1;fontSize=16;" vertex="1" parent="FSC97US5naSDxNQZ-GgM-135">
          <mxGeometry x="639" width="131" height="123" as="geometry">
            <mxRectangle width="131" height="123" as="alternateBounds" />
          </mxGeometry>
        </mxCell>
        <mxCell id="FSC97US5naSDxNQZ-GgM-141" style="shape=partialRectangle;html=1;whiteSpace=wrap;connectable=0;strokeColor=inherit;overflow=hidden;fillColor=none;top=0;left=0;bottom=0;right=0;pointerEvents=1;fontSize=16;" vertex="1" parent="FSC97US5naSDxNQZ-GgM-135">
          <mxGeometry x="770" width="170" height="123" as="geometry">
            <mxRectangle width="170" height="123" as="alternateBounds" />
          </mxGeometry>
        </mxCell>
        <mxCell id="FSC97US5naSDxNQZ-GgM-159" style="shape=partialRectangle;html=1;whiteSpace=wrap;connectable=0;strokeColor=inherit;overflow=hidden;fillColor=none;top=0;left=0;bottom=0;right=0;pointerEvents=1;fontSize=16;" vertex="1" parent="FSC97US5naSDxNQZ-GgM-135">
          <mxGeometry x="940" width="170" height="123" as="geometry">
            <mxRectangle width="170" height="123" as="alternateBounds" />
          </mxGeometry>
        </mxCell>
        <mxCell id="FSC97US5naSDxNQZ-GgM-147" style="shape=tableRow;horizontal=0;startSize=0;swimlaneHead=0;swimlaneBody=0;strokeColor=inherit;top=0;left=0;bottom=0;right=0;collapsible=0;dropTarget=0;fillColor=none;points=[[0,0.5],[1,0.5]];portConstraint=eastwest;fontSize=16;" vertex="1" parent="FSC97US5naSDxNQZ-GgM-100">
          <mxGeometry y="650" width="1110" height="95" as="geometry" />
        </mxCell>
        <mxCell id="FSC97US5naSDxNQZ-GgM-148" value="wserver" style="shape=partialRectangle;html=1;whiteSpace=wrap;connectable=0;strokeColor=inherit;overflow=hidden;fillColor=none;top=0;left=0;bottom=0;right=0;pointerEvents=1;fontSize=16;" vertex="1" parent="FSC97US5naSDxNQZ-GgM-147">
          <mxGeometry width="116" height="95" as="geometry">
            <mxRectangle width="116" height="95" as="alternateBounds" />
          </mxGeometry>
        </mxCell>
        <mxCell id="FSC97US5naSDxNQZ-GgM-149" style="shape=partialRectangle;html=1;whiteSpace=wrap;connectable=0;strokeColor=inherit;overflow=hidden;fillColor=none;top=0;left=0;bottom=0;right=0;pointerEvents=1;fontSize=16;" vertex="1" parent="FSC97US5naSDxNQZ-GgM-147">
          <mxGeometry x="116" width="124" height="95" as="geometry">
            <mxRectangle width="124" height="95" as="alternateBounds" />
          </mxGeometry>
        </mxCell>
        <mxCell id="FSC97US5naSDxNQZ-GgM-150" style="shape=partialRectangle;html=1;whiteSpace=wrap;connectable=0;strokeColor=inherit;overflow=hidden;fillColor=none;top=0;left=0;bottom=0;right=0;pointerEvents=1;fontSize=16;" vertex="1" parent="FSC97US5naSDxNQZ-GgM-147">
          <mxGeometry x="240" width="152" height="95" as="geometry">
            <mxRectangle width="152" height="95" as="alternateBounds" />
          </mxGeometry>
        </mxCell>
        <mxCell id="FSC97US5naSDxNQZ-GgM-151" style="shape=partialRectangle;html=1;whiteSpace=wrap;connectable=0;strokeColor=inherit;overflow=hidden;fillColor=none;top=0;left=0;bottom=0;right=0;pointerEvents=1;fontSize=16;" vertex="1" parent="FSC97US5naSDxNQZ-GgM-147">
          <mxGeometry x="392" width="109" height="95" as="geometry">
            <mxRectangle width="109" height="95" as="alternateBounds" />
          </mxGeometry>
        </mxCell>
        <mxCell id="FSC97US5naSDxNQZ-GgM-152" style="shape=partialRectangle;html=1;whiteSpace=wrap;connectable=0;strokeColor=inherit;overflow=hidden;fillColor=none;top=0;left=0;bottom=0;right=0;pointerEvents=1;fontSize=16;" vertex="1" parent="FSC97US5naSDxNQZ-GgM-147">
          <mxGeometry x="501" width="138" height="95" as="geometry">
            <mxRectangle width="138" height="95" as="alternateBounds" />
          </mxGeometry>
        </mxCell>
        <mxCell id="FSC97US5naSDxNQZ-GgM-153" style="shape=partialRectangle;html=1;whiteSpace=wrap;connectable=0;strokeColor=inherit;overflow=hidden;fillColor=none;top=0;left=0;bottom=0;right=0;pointerEvents=1;fontSize=16;" vertex="1" parent="FSC97US5naSDxNQZ-GgM-147">
          <mxGeometry x="639" width="131" height="95" as="geometry">
            <mxRectangle width="131" height="95" as="alternateBounds" />
          </mxGeometry>
        </mxCell>
        <mxCell id="FSC97US5naSDxNQZ-GgM-154" style="shape=partialRectangle;html=1;whiteSpace=wrap;connectable=0;strokeColor=inherit;overflow=hidden;fillColor=none;top=0;left=0;bottom=0;right=0;pointerEvents=1;fontSize=16;" vertex="1" parent="FSC97US5naSDxNQZ-GgM-147">
          <mxGeometry x="770" width="170" height="95" as="geometry">
            <mxRectangle width="170" height="95" as="alternateBounds" />
          </mxGeometry>
        </mxCell>
        <mxCell id="FSC97US5naSDxNQZ-GgM-160" style="shape=partialRectangle;html=1;whiteSpace=wrap;connectable=0;strokeColor=inherit;overflow=hidden;fillColor=none;top=0;left=0;bottom=0;right=0;pointerEvents=1;fontSize=16;" vertex="1" parent="FSC97US5naSDxNQZ-GgM-147">
          <mxGeometry x="940" width="170" height="95" as="geometry">
            <mxRectangle width="170" height="95" as="alternateBounds" />
          </mxGeometry>
        </mxCell>
        <mxCell id="FSC97US5naSDxNQZ-GgM-170" style="shape=tableRow;horizontal=0;startSize=0;swimlaneHead=0;swimlaneBody=0;strokeColor=inherit;top=0;left=0;bottom=0;right=0;collapsible=0;dropTarget=0;fillColor=none;points=[[0,0.5],[1,0.5]];portConstraint=eastwest;fontSize=16;" vertex="1" parent="FSC97US5naSDxNQZ-GgM-100">
          <mxGeometry y="745" width="1110" height="95" as="geometry" />
        </mxCell>
        <mxCell id="FSC97US5naSDxNQZ-GgM-171" value="monitor-server" style="shape=partialRectangle;html=1;whiteSpace=wrap;connectable=0;strokeColor=inherit;overflow=hidden;fillColor=none;top=0;left=0;bottom=0;right=0;pointerEvents=1;fontSize=16;" vertex="1" parent="FSC97US5naSDxNQZ-GgM-170">
          <mxGeometry width="116" height="95" as="geometry">
            <mxRectangle width="116" height="95" as="alternateBounds" />
          </mxGeometry>
        </mxCell>
        <mxCell id="FSC97US5naSDxNQZ-GgM-172" style="shape=partialRectangle;html=1;whiteSpace=wrap;connectable=0;strokeColor=inherit;overflow=hidden;fillColor=none;top=0;left=0;bottom=0;right=0;pointerEvents=1;fontSize=16;" vertex="1" parent="FSC97US5naSDxNQZ-GgM-170">
          <mxGeometry x="116" width="124" height="95" as="geometry">
            <mxRectangle width="124" height="95" as="alternateBounds" />
          </mxGeometry>
        </mxCell>
        <mxCell id="FSC97US5naSDxNQZ-GgM-173" style="shape=partialRectangle;html=1;whiteSpace=wrap;connectable=0;strokeColor=inherit;overflow=hidden;fillColor=none;top=0;left=0;bottom=0;right=0;pointerEvents=1;fontSize=16;" vertex="1" parent="FSC97US5naSDxNQZ-GgM-170">
          <mxGeometry x="240" width="152" height="95" as="geometry">
            <mxRectangle width="152" height="95" as="alternateBounds" />
          </mxGeometry>
        </mxCell>
        <mxCell id="FSC97US5naSDxNQZ-GgM-174" style="shape=partialRectangle;html=1;whiteSpace=wrap;connectable=0;strokeColor=inherit;overflow=hidden;fillColor=none;top=0;left=0;bottom=0;right=0;pointerEvents=1;fontSize=16;" vertex="1" parent="FSC97US5naSDxNQZ-GgM-170">
          <mxGeometry x="392" width="109" height="95" as="geometry">
            <mxRectangle width="109" height="95" as="alternateBounds" />
          </mxGeometry>
        </mxCell>
        <mxCell id="FSC97US5naSDxNQZ-GgM-175" style="shape=partialRectangle;html=1;whiteSpace=wrap;connectable=0;strokeColor=inherit;overflow=hidden;fillColor=none;top=0;left=0;bottom=0;right=0;pointerEvents=1;fontSize=16;" vertex="1" parent="FSC97US5naSDxNQZ-GgM-170">
          <mxGeometry x="501" width="138" height="95" as="geometry">
            <mxRectangle width="138" height="95" as="alternateBounds" />
          </mxGeometry>
        </mxCell>
        <mxCell id="FSC97US5naSDxNQZ-GgM-176" style="shape=partialRectangle;html=1;whiteSpace=wrap;connectable=0;strokeColor=inherit;overflow=hidden;fillColor=none;top=0;left=0;bottom=0;right=0;pointerEvents=1;fontSize=16;" vertex="1" parent="FSC97US5naSDxNQZ-GgM-170">
          <mxGeometry x="639" width="131" height="95" as="geometry">
            <mxRectangle width="131" height="95" as="alternateBounds" />
          </mxGeometry>
        </mxCell>
        <mxCell id="FSC97US5naSDxNQZ-GgM-177" style="shape=partialRectangle;html=1;whiteSpace=wrap;connectable=0;strokeColor=inherit;overflow=hidden;fillColor=none;top=0;left=0;bottom=0;right=0;pointerEvents=1;fontSize=16;" vertex="1" parent="FSC97US5naSDxNQZ-GgM-170">
          <mxGeometry x="770" width="170" height="95" as="geometry">
            <mxRectangle width="170" height="95" as="alternateBounds" />
          </mxGeometry>
        </mxCell>
        <mxCell id="FSC97US5naSDxNQZ-GgM-178" style="shape=partialRectangle;html=1;whiteSpace=wrap;connectable=0;strokeColor=inherit;overflow=hidden;fillColor=none;top=0;left=0;bottom=0;right=0;pointerEvents=1;fontSize=16;" vertex="1" parent="FSC97US5naSDxNQZ-GgM-170">
          <mxGeometry x="940" width="170" height="95" as="geometry">
            <mxRectangle width="170" height="95" as="alternateBounds" />
          </mxGeometry>
        </mxCell>
      </root>
    </mxGraphModel>
  </diagram>
</mxfile>
